<svg id="Layer_1" data-name="Layer 1" xmlns="http://www.w3.org/2000/svg" width="1366" height="768" viewBox="0 0 1366 768"><defs><style>.cls-1{fill:#fff9f0;}</style></defs><path class="cls-1" d="M860.84,73a144.9,144.9,0,0,1,144.91,144.91V538.09A144.9,144.9,0,0,1,860.84,683H540.66A144.9,144.9,0,0,1,395.75,538.09V217.91A144.9,144.9,0,0,1,540.66,73H860.84m0-35H540.66A179.91,179.91,0,0,0,360.75,217.91V538.09A179.91,179.91,0,0,0,540.66,718H860.84a179.91,179.91,0,0,0,179.91-179.91V217.91A179.91,179.91,0,0,0,860.84,38Z"/><path class="cls-1" d="M700.75,248.5a129.5,129.5,0,1,1-91.57,37.93,128.65,128.65,0,0,1,91.57-37.93m0-35A164.5,164.5,0,1,0,865.25,378a164.5,164.5,0,0,0-164.5-164.5Z"/><path class="cls-1" d="M864,156a35,35,0,1,0,35,35,35,35,0,0,0-35-35Z"/></svg>
